<svg width="44" height="41" viewBox="0 0 44 41" fill="none" xmlns="http://www.w3.org/2000/svg">
<mask id="path-1-inside-1" fill="white">
<path fill-rule="evenodd" clip-rule="evenodd" d="M0 0H28.2857V40.8571H0V0ZM32.2142 0H43.9999V26.7143H32.2142V0ZM43.9999 31.4287H32.2142V40.8573H43.9999V31.4287Z"/>
</mask>
<path fill-rule="evenodd" clip-rule="evenodd" d="M0 0H28.2857V40.8571H0V0ZM32.2142 0H43.9999V26.7143H32.2142V0ZM43.9999 31.4287H32.2142V40.8573H43.9999V31.4287Z" fill="black"/>
<path d="M28.2857 0H29.2857V-1H28.2857V0ZM0 0V-1H-1V0H0ZM28.2857 40.8571V41.8571H29.2857V40.8571H28.2857ZM0 40.8571H-1V41.8571H0V40.8571ZM43.9999 0H44.9999V-1H43.9999V0ZM32.2142 0V-1H31.2142V0H32.2142ZM43.9999 26.7143V27.7143H44.9999V26.7143H43.9999ZM32.2142 26.7143H31.2142V27.7143H32.2142V26.7143ZM32.2142 31.4287V30.4287H31.2142V31.4287H32.2142ZM43.9999 31.4287H44.9999V30.4287H43.9999V31.4287ZM32.2142 40.8573H31.2142V41.8573H32.2142V40.8573ZM43.9999 40.8573V41.8573H44.9999V40.8573H43.9999ZM28.2857 -1H0V1H28.2857V-1ZM29.2857 40.8571V0H27.2857V40.8571H29.2857ZM0 41.8571H28.2857V39.8571H0V41.8571ZM-1 0V40.8571H1V0H-1ZM43.9999 -1H32.2142V1H43.9999V-1ZM44.9999 26.7143V0H42.9999V26.7143H44.9999ZM32.2142 27.7143H43.9999V25.7143H32.2142V27.7143ZM31.2142 0V26.7143H33.2142V0H31.2142ZM32.2142 32.4287H43.9999V30.4287H32.2142V32.4287ZM33.2142 40.8573V31.4287H31.2142V40.8573H33.2142ZM43.9999 39.8573H32.2142V41.8573H43.9999V39.8573ZM42.9999 31.4287V40.8573H44.9999V31.4287H42.9999Z" fill="white" mask="url(#path-1-inside-1)"/>
</svg>
